<?xml version="1.0" encoding="UTF-8"?>
<svg version="1.1" xmlns="http://www.w3.org/2000/svg" width="100" height="100">
<path d="M0 0 C33 0 66 0 100 0 C100 33 100 66 100 100 C67 100 34 100 0 100 C0 67 0 34 0 0 Z " fill="#232323" transform="translate(0,0)"/>
<path d="M0 0 C7.92 0 15.84 0 24 0 C24.09041496 9.30126474 24.16378135 18.602237 24.20724869 27.90384197 C24.2281122 32.2230889 24.25640687 36.54201925 24.30175781 40.86108398 C24.34526027 45.03025735 24.36914641 49.19912646 24.37950897 53.36850929 C24.3868925 54.958136 24.40131103 56.5477463 24.42292023 58.13724327 C24.45201408 60.3661925 24.45595371 62.5938891 24.45410156 64.82299805 C24.46298401 66.09096725 24.47186646 67.35893646 24.48101807 68.66532898 C23.91094425 72.61738142 22.8781464 74.26935233 20 77 C17.09012681 77.51529004 14.89103401 77.70356071 12 77.625 C10.93265625 77.65400391 10.93265625 77.65400391 9.84375 77.68359375 C6.26936051 77.65025056 4.41887138 77.39740514 1.79400635 74.90705872 C-0.44563163 71.27788588 -0.48386041 69.07107326 -0.45410156 64.82299805 C-0.45468567 64.12001083 -0.45526978 63.41702362 -0.45587158 62.69273376 C-0.45309707 60.38188339 -0.4220379 58.0723422 -0.390625 55.76171875 C-0.38316029 54.1546143 -0.37746844 52.54750073 -0.37347412 50.94038391 C-0.35823573 46.72006901 -0.31896996 42.50030884 -0.2746582 38.2802124 C-0.23366641 33.97008772 -0.2154548 29.659873 -0.1953125 25.34960938 C-0.15247331 16.89945722 -0.08213871 8.44986163 0 0 Z " fill="#FAFAFA" transform="translate(38,0)"/>
<path d="M0 0 C3.3 0 6.6 0 10 0 C10 33 10 66 10 100 C-2.54 100 -15.08 100 -28 100 C-28 99.67 -28 99.34 -28 99 C-27.31035156 98.91363281 -26.62070312 98.82726562 -25.91015625 98.73828125 C-17.73520049 97.51596276 -10.85821523 95.59109093 -5.5625 88.9375 C-5.046875 87.968125 -4.53125 86.99875 -4 86 C-3.4121875 85.01 -3.4121875 85.01 -2.8125 84 C-0.78789975 79.01636862 -0.83898803 73.64742522 -0.79467773 68.34228516 C-0.78477814 67.60013763 -0.77487854 66.85799011 -0.76467896 66.09335327 C-0.73328083 63.6586213 -0.70839303 61.22386986 -0.68359375 58.7890625 C-0.66300545 57.0936942 -0.6420085 55.39833082 -0.62062073 53.70297241 C-0.56559369 49.25445554 -0.5160995 44.80589384 -0.46777344 40.3572998 C-0.41741645 35.81237834 -0.3618047 31.26752146 -0.30664062 26.72265625 C-0.19929617 17.81515943 -0.09779916 8.90760638 0 0 Z " fill="#F8F8F7" transform="translate(90,0)"/>
<path d="M0 0 C3.3 0 6.6 0 10 0 C10.00364563 0.95498383 10.00729126 1.90996765 10.01104736 2.89389038 C10.04810885 11.92668837 10.10600251 20.95914896 10.18390274 29.99168968 C10.22328616 34.63461016 10.25551921 39.27734356 10.27099609 43.92041016 C10.28622317 48.40753201 10.32077497 52.89413926 10.36830902 57.38103104 C10.38306073 59.08644748 10.39103742 60.79193742 10.39188385 62.49741745 C10.3989621 77.32703437 10.3989621 77.32703437 16.859375 90.40234375 C24.17020318 96.33861539 30.65920433 98.37295585 40 99 C40 99.33 40 99.66 40 100 C26.8 100 13.6 100 0 100 C0 67 0 34 0 0 Z " fill="#F9F9F9" transform="translate(0,0)"/>
<path d="M0 0 C3.96 0 7.92 0 12 0 C12 3.96 12 7.92 12 12 C8.04 12 4.08 12 0 12 C0 8.04 0 4.08 0 0 Z " fill="#EC8C4D" transform="translate(88,88)"/>
</svg>
